<?xml version="1.0" encoding="UTF-8"?>
<svg id="Ebene_1" data-name="Ebene 1" xmlns="http://www.w3.org/2000/svg" version="1.1" xmlns:xlink="http://www.w3.org/1999/xlink" viewBox="0 0 200 200">
  <defs>
    <style>
      .cls-1 {
        fill: #000;
      }

      .cls-1, .cls-2, .cls-3 {
        stroke-width: 0px;
      }

      .cls-2 {
        fill: salmon;
      }

      .cls-3, .cls-4 {
        fill: none;
      }

      .cls-5 {
        clip-path: url(#clippath-1);
      }

      .cls-6 {
        clip-path: url(#clippath);
      }

      .cls-4 {
        stroke: #6bcbea;
        stroke-miterlimit: 10;
        stroke-width: 7px;
      }
    </style>
    <clipPath id="clippath">
      <rect class="cls-3" y="0" width="200" height="200"/>
    </clipPath>
    <clipPath id="clippath-1">
      <rect class="cls-3" x="47" y="46.9" width="111.7" height="114.6" transform="translate(-7.2 7.7) rotate(-4.1)"/>
    </clipPath>
  </defs>
  <rect class="cls-1" y="0" width="200" height="200"/>
  <g class="cls-6">
    <g class="cls-5">
      <path class="cls-2" d="M143.4,66.5c.5,6.1-1.3,11.5-5.3,16.1-16,18.6-32.1,37.2-48.2,55.7-6.9,7.9-19.3,6.3-23.6-3.2-2.5-5.4-1.8-10.8,2.1-15.3,14.1-16.5,14.4-16.6,28.6-33,1.9-2.2,4.4-2.4,6.2-.8,1.8,1.5,1.8,4.1-.1,6.2-13.9,16.1-13.8,16.1-27.7,32.2-1.6,1.9-2.8,3.8-2,6.4,1.2,4.1,6.1,5.7,9.5,3.1.5-.4,1-.9,1.4-1.4,15.8-18.3,31.6-36.5,47.4-54.8,6.2-7.2,4.3-17.6-3.9-22.2-6.1-3.4-13.3-1.9-18.3,3.9-6.2,7.1-12.3,14.2-18.4,21.3-9.3,10.8-18.7,21.5-28,32.3-7,8.2-8.1,19.2-2.8,27.8,7.2,11.6,23.6,13.8,34,4.5,1.5-1.3,2.9-2.8,4.2-4.3,15.5-17.9,21.3-24.4,36.9-42.3.6-.7,1.2-1.4,1.9-2,1.7-1.5,3.5-1.6,5.2-.2,1.7,1.4,2.1,3.2,1,5.2-.4.7-1,1.4-1.5,2-16.1,18.6-22.5,25.8-38.7,44.4-10.4,12-27.3,14.8-40.1,6.9-14.8-9.2-18.9-29-9.1-43.4.8-1.2,1.7-2.5,2.7-3.6,15.6-18.1,31.2-36.2,46.9-54.2,5.9-6.8,13.6-9.4,22.4-7.3,8.4,2,13.9,7.3,16.5,15.6.5,1.5.6,3.1.9,4.7h0Z"/>
    </g>
  </g>
  <rect class="cls-4" x="21.5" y="21.5" width="157" height="157"/>
</svg>